<svg xmlns="http://www.w3.org/2000/svg" xmlns:xlink="http://www.w3.org/1999/xlink" preserveAspectRatio="xMidYMid" width="1000" height="1000" viewBox="-555.15 -791.65 3000.3 3000.3">
  <defs>
    <style>
      .cls-1 {
        fill: #51b051;
      }

      .cls-1, .cls-2 {
        fill-rule: evenodd;
      }

      .cls-2 {
        fill: #1d0b0b;
      }
    </style>
  </defs>
  <path d="M912.000,704.000 C972.000,617.123 1195.137,552.035 1203.092,552.254 C1265.494,910.400 1010.506,985.537 948.000,992.000 C953.877,987.566 910.324,995.382 882.592,923.926 C780.359,1075.192 531.579,850.472 504.753,702.245 C491.469,628.845 477.000,541.844 501.000,431.000 C549.000,431.000 846.000,533.241 912.000,704.000 Z" class="cls-1"/>
  <path d="M918.000,977.000 C918.000,977.000 897.000,929.015 954.000,824.000 C1011.000,718.985 1092.000,679.884 1125.000,653.000 C1107.693,675.059 923.307,911.941 942.000,986.000 C954.000,1033.541 918.000,977.000 918.000,977.000 ZM855.000,953.000 C855.000,953.000 837.000,844.922 771.000,749.000 C705.000,653.078 651.000,604.710 594.000,554.000 C654.000,644.091 684.000,686.000 684.000,686.000 L756.000,806.000 C756.000,806.000 843.000,998.323 825.000,968.000 C837.000,937.677 855.000,953.000 855.000,953.000 Z" class="cls-2"/>
</svg>
